<svg width="3980" height="3980" viewBox="0 0 3980 3980" fill="none" xmlns="http://www.w3.org/2000/svg">
<path d="M1050.57 1675.74C1061.55 1664.75 1079.36 1664.75 1090.35 1675.74L1384.68 1970.07C1385.2 1970.59 1385.69 1971.13 1386.16 1971.68H983.273V1989.96H1392.92C1392.92 1997.16 1390.17 2004.35 1384.68 2009.85L1090.35 2304.18C1079.36 2315.16 1061.55 2315.16 1050.57 2304.18L756.237 2009.85C745.255 1998.86 745.254 1981.05 756.237 1970.07L1050.57 1675.74Z" fill="#0F1C3F"/>
<path d="M1212.41 2115.11C1237.42 2115.11 1249.99 2145.31 1232.36 2163.06L1091.82 2304.56C1080.82 2315.63 1062.91 2315.63 1051.91 2304.56L911.362 2163.06C893.736 2145.31 906.305 2115.11 931.316 2115.11H1212.41Z" fill="#007B8A"/>
<path d="M1201.24 2115.11L1031.79 2283.86L862.332 2115.11H1201.24Z" fill="#007B8A"/>
<path d="M1407.96 1989.96L1195.61 2199.49L983.269 1989.96H1407.96Z" fill="#00ADC2"/>
<path d="M1722.94 1920.4C1714.3 1903.76 1702.3 1891.28 1686.94 1882.96C1671.58 1874.32 1653.82 1870 1633.66 1870C1611.58 1870 1591.9 1874.96 1574.62 1884.88C1557.34 1894.8 1543.74 1908.88 1533.82 1927.12C1524.22 1945.36 1519.42 1966.48 1519.42 1990.48C1519.42 2014.48 1524.22 2035.76 1533.82 2054.32C1543.74 2072.56 1557.34 2086.64 1574.62 2096.56C1591.9 2106.48 1611.58 2111.44 1633.66 2111.44C1663.42 2111.44 1687.58 2103.12 1706.14 2086.48C1724.7 2069.84 1736.06 2047.28 1740.22 2018.8H1614.94V1975.12H1798.78V2017.84C1795.26 2043.76 1785.98 2067.6 1770.94 2089.36C1756.22 2111.12 1736.86 2128.56 1712.86 2141.68C1689.18 2154.48 1662.78 2160.88 1633.66 2160.88C1602.3 2160.88 1573.66 2153.68 1547.74 2139.28C1521.82 2124.56 1501.18 2104.24 1485.82 2078.32C1470.78 2052.4 1463.26 2023.12 1463.26 1990.48C1463.26 1957.84 1470.78 1928.56 1485.82 1902.64C1501.18 1876.72 1521.82 1856.56 1547.74 1842.16C1573.98 1827.44 1602.62 1820.08 1633.66 1820.08C1669.18 1820.08 1700.7 1828.88 1728.22 1846.48C1756.06 1863.76 1776.22 1888.4 1788.7 1920.4H1722.94ZM1846.99 1858.48C1837.07 1858.48 1828.75 1855.12 1822.03 1848.4C1815.31 1841.68 1811.95 1833.36 1811.95 1823.44C1811.95 1813.52 1815.31 1805.2 1822.03 1798.48C1828.75 1791.76 1837.07 1788.4 1846.99 1788.4C1856.59 1788.4 1864.75 1791.76 1871.47 1798.48C1878.19 1805.2 1881.55 1813.52 1881.55 1823.44C1881.55 1833.36 1878.19 1841.68 1871.47 1848.4C1864.75 1855.12 1856.59 1858.48 1846.99 1858.48ZM1873.87 1893.52V2158H1819.15V1893.52H1873.87ZM2045.55 1889.2C2066.35 1889.2 2084.91 1893.52 2101.23 1902.16C2117.87 1910.8 2130.83 1923.6 2140.11 1940.56C2149.39 1957.52 2154.03 1978 2154.03 2002V2158H2099.79V2010.16C2099.79 1986.48 2093.87 1968.4 2082.03 1955.92C2070.19 1943.12 2054.03 1936.72 2033.55 1936.72C2013.07 1936.72 1996.75 1943.12 1984.59 1955.92C1972.75 1968.4 1966.83 1986.48 1966.83 2010.16V2158H1912.11V1893.52H1966.83V1923.76C1975.79 1912.88 1987.15 1904.4 2000.91 1898.32C2014.99 1892.24 2029.87 1889.2 2045.55 1889.2ZM2296.79 1889.2C2317.27 1889.2 2335.35 1893.36 2351.03 1901.68C2367.03 1909.68 2379.51 1919.76 2388.47 1931.92V1893.52H2443.67V2162.32C2443.67 2186.64 2438.55 2208.24 2428.31 2227.12C2418.07 2246.32 2403.19 2261.36 2383.67 2272.24C2364.47 2283.12 2341.43 2288.56 2314.55 2288.56C2278.71 2288.56 2248.95 2280.08 2225.27 2263.12C2201.59 2246.48 2188.15 2223.76 2184.95 2194.96H2239.19C2243.35 2208.72 2252.15 2219.76 2265.59 2228.08C2279.35 2236.72 2295.67 2241.04 2314.55 2241.04C2336.63 2241.04 2354.39 2234.32 2367.83 2220.88C2381.59 2207.44 2388.47 2187.92 2388.47 2162.32V2118.16C2379.19 2130.64 2366.55 2141.2 2350.55 2149.84C2334.87 2158.16 2316.95 2162.32 2296.79 2162.32C2273.75 2162.32 2252.63 2156.56 2233.43 2145.04C2214.55 2133.2 2199.51 2116.88 2188.31 2096.08C2177.43 2074.96 2171.99 2051.12 2171.99 2024.56C2171.99 1998 2177.43 1974.48 2188.31 1954C2199.51 1933.52 2214.55 1917.68 2233.43 1906.48C2252.63 1894.96 2273.75 1889.2 2296.79 1889.2ZM2388.47 2025.52C2388.47 2007.28 2384.63 1991.44 2376.95 1978C2369.59 1964.56 2359.83 1954.32 2347.67 1947.28C2335.51 1940.24 2322.39 1936.72 2308.31 1936.72C2294.23 1936.72 2281.11 1940.24 2268.95 1947.28C2256.79 1954 2246.87 1964.08 2239.19 1977.52C2231.83 1990.64 2228.15 2006.32 2228.15 2024.56C2228.15 2042.8 2231.83 2058.8 2239.19 2072.56C2246.87 2086.32 2256.79 2096.88 2268.95 2104.24C2281.43 2111.28 2294.55 2114.8 2308.31 2114.8C2322.39 2114.8 2335.51 2111.28 2347.67 2104.24C2359.83 2097.2 2369.59 2086.96 2376.95 2073.52C2384.63 2059.76 2388.47 2043.76 2388.47 2025.52ZM2724.34 2019.28C2724.34 2029.2 2723.7 2038.16 2722.42 2046.16H2520.34C2521.94 2067.28 2529.78 2084.24 2543.86 2097.04C2557.94 2109.84 2575.22 2116.24 2595.7 2116.24C2625.14 2116.24 2645.94 2103.92 2658.1 2079.28H2717.14C2709.14 2103.6 2694.58 2123.6 2673.46 2139.28C2652.66 2154.64 2626.74 2162.32 2595.7 2162.32C2570.42 2162.32 2547.7 2156.72 2527.54 2145.52C2507.7 2134 2492.02 2118 2480.5 2097.52C2469.3 2076.72 2463.7 2052.72 2463.7 2025.52C2463.7 1998.32 2469.14 1974.48 2480.02 1954C2491.22 1933.2 2506.74 1917.2 2526.58 1906C2546.74 1894.8 2569.78 1889.2 2595.7 1889.2C2620.66 1889.2 2642.9 1894.64 2662.42 1905.52C2681.94 1916.4 2697.14 1931.76 2708.02 1951.6C2718.9 1971.12 2724.34 1993.68 2724.34 2019.28ZM2667.22 2002C2666.9 1981.84 2659.7 1965.68 2645.62 1953.52C2631.54 1941.36 2614.1 1935.28 2593.3 1935.28C2574.42 1935.28 2558.26 1941.36 2544.82 1953.52C2531.38 1965.36 2523.38 1981.52 2520.82 2002H2667.22ZM2799.31 1931.92C2807.31 1918.48 2817.87 1908.08 2830.99 1900.72C2844.43 1893.04 2860.27 1889.2 2878.51 1889.2V1945.84H2864.59C2843.15 1945.84 2826.83 1951.28 2815.63 1962.16C2804.75 1973.04 2799.31 1991.92 2799.31 2018.8V2158H2744.59V1893.52H2799.31V1931.92ZM2949.93 1802.8V2158H2895.21V1802.8H2949.93ZM3226.26 1893.52L3064.02 2282.32H3007.38L3061.14 2153.68L2956.98 1893.52H3017.94L3092.34 2095.12L3169.62 1893.52H3226.26Z" fill="#0F1C3F"/>
</svg>
